<?xml version="1.0" standalone="no"?>
<!DOCTYPE svg PUBLIC "-//W3C//DTD SVG 20010904//EN"
 "http://www.w3.org/TR/2001/REC-SVG-20010904/DTD/svg10.dtd">
<svg version="1.0" xmlns="http://www.w3.org/2000/svg"
 width="214.000000pt" height="186.000000pt" viewBox="0 0 214.000000 186.000000"
 preserveAspectRatio="xMidYMid meet">

<g transform="translate(0.000000,186.000000) scale(0.100000,-0.100000)"
fill="#000000" stroke="none">
<path d="M900 1140 c-94 -115 -173 -210 -175 -210 -2 0 -65 77 -141 170 -132
162 -139 170 -154 151 -8 -11 -95 -118 -194 -239 -98 -121 -178 -224 -178
-229 3 -30 39 3 126 112 55 69 102 125 105 125 3 0 22 -19 43 -42 l38 -43 39
45 39 45 20 -25 c11 -14 28 -35 38 -48 l19 -23 34 45 c19 25 38 46 41 46 16 0
101 -121 94 -132 -5 -7 -67 -85 -138 -173 -71 -88 -134 -166 -140 -173 -7 -10
-6 -16 4 -22 9 -6 64 54 197 218 101 125 187 228 192 230 4 1 35 -31 69 -73
34 -41 66 -75 70 -75 4 1 33 34 65 75 32 41 62 75 65 75 4 0 34 -34 66 -75 32
-41 62 -75 66 -75 4 0 33 34 66 74 32 41 62 75 66 75 4 1 91 -102 193 -229
167 -205 205 -244 205 -209 0 8 -203 265 -278 351 -13 16 -10 22 29 70 23 29
47 58 52 63 5 6 23 -7 48 -35 l39 -45 39 45 39 45 20 -25 c11 -14 28 -35 38
-48 l19 -23 34 45 c19 25 38 46 41 46 4 0 53 -56 109 -125 97 -120 114 -135
125 -117 4 8 -377 487 -387 487 -3 0 -66 -75 -141 -167 -75 -93 -138 -168
-140 -168 -1 0 -79 94 -172 210 -93 115 -172 209 -176 210 -3 0 -84 -94 -178
-210z m296 17 c59 -73 111 -138 117 -144 6 -9 -7 -32 -43 -75 -29 -35 -56 -63
-60 -63 -5 0 -36 35 -70 77 l-62 78 -64 -80 c-36 -44 -67 -80 -69 -80 -2 0
-28 30 -58 67 l-55 67 120 148 c66 81 124 145 129 143 4 -3 56 -65 115 -138z
m-701 1 c22 -28 50 -63 63 -78 l22 -28 -26 -31 c-14 -17 -29 -31 -32 -31 -4 0
-22 21 -40 45 l-34 45 -35 -43 c-20 -23 -40 -42 -46 -42 -5 0 -20 14 -32 30
l-23 30 64 78 c36 42 68 77 72 77 4 -1 25 -24 47 -52z m1243 20 c15 -17 44
-53 65 -79 l37 -47 -26 -31 c-14 -17 -29 -31 -32 -31 -4 0 -22 21 -41 45 l-33
45 -36 -45 c-19 -25 -38 -45 -43 -45 -8 0 -49 54 -49 65 0 8 119 155 126 155
3 0 17 -14 32 -32z"/>
</g>
</svg>
